<svg width="69" height="37" viewBox="0 0 69 37" fill="none" xmlns="http://www.w3.org/2000/svg">
<g id="logo">
<g id="Group">
<path id="Vector" d="M34.5 37C25.4243 37 16.8459 35.1752 10.3811 31.7772C3.66757 28.3163 0 23.5969 0 18.5C0 13.4031 3.66757 8.68367 10.3811 5.22279C16.8459 1.82483 25.4243 0 34.5 0C43.5757 0 52.1541 1.82483 58.6189 5.22279C65.3324 8.68367 69 13.466 69 18.5629C69 23.6599 65.3324 28.3163 58.6189 31.8401C52.1541 35.1752 43.5757 37 34.5 37ZM34.5 2.45408C25.7973 2.45408 17.6541 4.21599 11.5 7.36225C5.65676 10.4456 2.42432 14.4099 2.42432 18.5C2.42432 22.5901 5.65676 26.5544 11.5 29.6378C17.5919 32.784 25.7973 34.5459 34.5 34.5459C43.2027 34.5459 51.3459 32.784 57.5 29.6378C63.3432 26.6173 66.5757 22.6531 66.5757 18.5C66.5757 14.3469 63.3432 10.4456 57.5 7.36225C51.3459 4.21599 43.2027 2.45408 34.5 2.45408Z" fill="black"/>
</g>
<g id="Group_2">
<g id="Group_3">
<path id="Vector_2" d="M50.2892 10.6343C51.0352 11.0119 51.6568 11.6411 52.1541 12.3962C52.6514 13.2143 52.9622 14.0952 53.0244 15.2279L50.973 15.8571C50.8487 14.7245 50.4757 13.8435 49.7919 13.2143C49.1081 12.585 48.3 12.2704 47.2433 12.2704C46.1865 12.2704 45.3162 12.5221 44.5081 13.0884C43.7622 13.5918 43.1406 14.3469 42.7676 15.3537C42.3946 16.3605 42.146 17.4932 42.146 18.8146V26.4286H39.7838V10.6973H41.8352L42.0217 13.5918C42.5811 12.5221 43.2649 11.6411 44.1973 11.0119C45.1298 10.3826 46.1865 10.068 47.4298 10.068C48.6108 10.0051 49.4811 10.1939 50.2892 10.6343Z" fill="black"/>
</g>
<g id="Group_4">
<path id="Vector_3" d="M37.2352 24.2891C37.0487 24.5408 36.8 24.7925 36.4892 24.9813C36.3649 25.0442 36.2406 25.1071 36.1162 25.1701C35.4946 25.4218 34.9352 25.2959 34.6243 24.9184C34.3757 24.6667 34.2514 24.352 34.2514 23.9116V21.3946H31.9514L30.1487 22.9677C29.5892 23.4711 28.9054 23.8486 28.0973 24.1633C26.9162 24.6667 25.5487 24.9184 24.0568 24.9184C22.5027 24.9184 21.2595 24.6667 20.3271 24.2262C19.4568 23.7228 18.9595 23.0935 18.9595 22.2755C18.9595 21.4575 19.4568 20.7653 20.4514 20.2619C21.446 19.7585 22.9379 19.3809 25.0514 19.1292L31.8892 18.5629C33.2568 18.4371 34.2514 17.3044 34.2514 15.9201V15.8571C34.2514 14.6616 33.8784 13.5918 33.1946 12.7738C32.5108 11.8929 31.5162 11.2636 30.273 10.7602C29.0298 10.3197 27.6622 10.068 26.1703 10.068C24.7406 10.068 23.4352 10.2568 22.1298 10.6973C20.8865 11.1378 19.7676 11.7041 18.8352 12.3333C17.9027 13.0255 17.2811 13.7806 16.9703 14.5986L18.7108 15.7942C19.0216 15.165 19.5189 14.5357 20.2027 14.0323C20.9487 13.466 21.8189 13.0255 22.8757 12.7109C23.9325 12.3963 24.9892 12.2075 26.1081 12.2075C27.2271 12.2075 28.2216 12.3333 29.0919 12.585C29.9622 12.8367 30.7081 13.2143 31.2054 13.7177C31.7027 14.2211 31.9514 14.7874 31.9514 15.4167C31.9514 15.7942 31.8271 16.0459 31.5784 16.2347C31.3298 16.4235 31.0189 16.5493 30.646 16.5493L24.8649 17.1156C22.1298 17.4303 20.0784 17.9966 18.7108 18.8775C17.3433 19.7585 16.6595 20.9541 16.6595 22.3384C16.6595 23.2823 16.9703 24.1003 17.5298 24.7925C18.0892 25.4847 18.8973 26.051 19.9541 26.4286C21.0108 26.8061 22.3162 26.9949 23.746 26.9949C24.9271 26.9949 26.1081 26.869 27.1649 26.5544C28.2216 26.2398 29.1541 25.7993 29.9622 25.2959C30.7703 24.7296 31.3298 24.2262 31.7649 23.4711L32.0135 23.4082L31.9514 24.0374C31.9514 24.6667 32.0757 25.1701 32.3243 25.6105C32.573 26.051 32.946 26.3656 33.4433 26.6803C33.8784 26.932 34.4379 27.0578 34.9973 27.0578C35.6811 27.0578 36.3649 26.932 36.9865 26.6173C37.6703 26.3027 38.1054 25.8622 38.4162 25.3588L37.2352 24.2891Z" fill="black"/>
</g>
</g>
</g>
</svg>
